<svg width="161" height="34" viewBox="0 0 161 34" fill="none" xmlns="http://www.w3.org/2000/svg">
    <path d="M0.639316 28.9973C0.639316 28.9973 5.60342 22.3033 6.09231 21.664C6.73162 20.8366 7.63419 19.1443 9.17607 19.0691C10.6051 19.0691 11.5829 18.6178 12.2598 17.9785C12.2222 19.0315 12.3727 21.2879 14.065 22.8298C14.5162 23.2435 14.8171 23.6948 15.0427 24.146C11.6581 22.7546 9.81538 25.199 9.81538 25.199C9.81538 25.199 6.88205 27.8315 5.18974 29.411C3.53504 30.9905 4.06154 31.517 4.06154 31.517L5.4906 33.9238H0C0 33.9238 0 31.4418 0 30.652C0 29.8999 0.639316 28.9973 0.639316 28.9973Z" fill="#4F4F4F"></path>
    <path d="M65.6998 19.4828C63.8571 19.3324 63.2554 17.9409 63.1426 17.3768C63.8947 17.7529 65.0981 18.317 65.8879 17.8657C67.4297 16.9631 69.9494 17.452 69.9494 17.452C69.9494 17.452 68.1819 17.5272 66.828 18.693C66.452 19.0691 66.0759 19.2947 65.6998 19.4828Z" fill="#4F4F4F"></path>
    <path d="M49.906 24.7837C49.2291 25.6486 49.1915 26.476 50.2444 27.1529C52.3128 28.4692 54.6068 29.6726 55.2462 30.0486C55.8855 30.4247 56.3744 30.5751 56.7504 32.2675C57.1265 33.9974 57.1265 33.9974 57.1265 33.9974H51.8239V32.0418C51.8239 32.0418 51.8615 31.4025 51.0342 31.1392C51.0342 31.1392 46.5966 29.7102 44.9043 29.1461C44.0017 28.8452 43.5504 28.4692 42.9863 27.3786L44.641 25.4982C45.5812 25.423 47.8 25.2726 49.906 24.7837Z" fill="#4F4F4F"></path>
    <path d="M51.2959 23.2811C49.7164 23.8452 48.325 24.0708 45.5797 24.3717C45.5797 24.3717 47.272 22.5289 47.7609 21.8144C48.513 20.7614 50.8822 18.4298 50.2805 14.8947C49.5284 10.3819 45.3164 9.6674 43.06 9.93065L43.1728 10.946C43.3985 10.9084 48.5882 10.4948 49.2651 15.0076C49.7916 18.5426 47.272 20.7614 43.4361 25.1614C42.7592 25.9512 39.6002 29.599 39.6002 29.599C39.6002 29.599 38.5096 30.6896 39.0361 31.705C39.5626 32.6828 40.1643 33.9238 40.1643 33.9238H34.4857C34.4857 33.9238 34.4857 31.9683 34.4857 30.84C34.4857 29.7118 34.8241 29.3358 35.313 28.5084C36.2532 26.9289 37.607 24.6349 37.9831 24.0332C38.7352 22.7922 38.3592 22.5289 36.0275 21.664C32.6053 20.3853 28.5438 20.9118 24.0686 24.6349C22.978 25.5375 23.9557 26.1768 24.3694 26.4401C26.5882 27.8315 29.7848 29.4486 30.2737 29.7118C30.9506 30.0879 31.2891 30.1255 31.7028 31.9683C32.0788 33.8486 32.0788 33.8486 32.0788 33.8486H26.5882C26.5882 33.8486 26.6258 32.0435 26.6258 31.9683C26.6258 31.705 26.6634 31.0657 25.7609 30.7648C25.7609 30.7648 20.3831 29.1853 18.5404 28.6212C16.6976 28.0195 16.5848 26.5153 16.5848 26.2896C16.5848 26.1768 16.5848 25.5751 16.3968 24.823C16.1711 23.9956 15.7198 22.9426 14.7797 22.04C12.9369 20.3477 13.125 16.8503 13.6515 14.3683C12.6737 15.1956 11.4703 15.9853 9.74036 15.9853C7.25831 15.9853 4.92668 13.5033 3.23438 9.44176L4.17455 9.06569C5.71643 12.7888 7.67198 14.9324 9.70275 14.97C12.4857 15.0076 14.2532 11.8862 15.1557 10.9836C17.0361 9.1033 19.1045 8.76484 22.2634 8.72723C25.7233 8.68962 28.6942 8.95287 32.9814 5.71868C36.1028 3.34945 42.4207 0.00244141 46.6327 0.00244141C51.7472 0.00244141 56.9746 5.04176 60.1335 11.6606C60.472 12.3751 61.3369 14.7443 62.2395 17.64C63.1421 20.611 66.0378 20.611 67.0908 20.2725C68.219 19.8965 69.4976 19.2195 73.3711 19.746C73.3711 19.746 71.1899 19.8212 69.3848 21.1751C67.0532 23.0178 65.2481 22.9802 63.4805 23.0554C61.713 23.1683 60.0583 26.9665 58.7421 28.8469H56.4104C56.4104 28.8469 54.9438 28.8845 55.0566 27.0042C55.1694 25.011 55.2822 23.4315 54.3421 22.1529C53.7028 21.2879 53.9284 22.3409 51.2959 23.2811Z" fill="#4F4F4F"></path>
    <path d="M85.0683 17.4896C86.0461 17.4896 86.8734 17.64 87.5503 17.8657C86.4221 18.8059 84.8427 19.37 82.8871 19.37C79.9914 19.37 77.5845 18.4674 75.3281 16.4742L76.4187 15.1956C78.4871 17.0383 80.4803 17.8281 82.9623 17.8281C83.7144 17.8281 84.3914 17.7153 84.9555 17.4896C85.0307 17.4896 85.0683 17.4896 85.0683 17.4896ZM92.8905 1.84518H90.8974V3.76313H92.8905V1.84518ZM95.2221 1.54432H96.9897V16.211H95.2221V1.54432ZM102.744 16.2862L98.2307 5.75629H100.186L103.533 14.0298L106.918 5.75629H108.836L104.285 16.2862H102.744ZM113.875 16.4366C115.643 16.4366 116.959 15.8349 118.162 14.4811L118.238 14.4059L117.109 13.3905L117.034 13.4657C116.132 14.4059 115.116 14.8571 113.913 14.8571C112.183 14.8571 110.829 13.7289 110.491 11.9614L110.453 11.7358H118.538V11.623C118.576 11.3973 118.576 11.2093 118.576 11.0965C118.576 7.78706 116.62 5.56825 113.687 5.56825C110.829 5.56825 108.648 7.89988 108.648 11.0212C108.648 14.105 110.904 16.4366 113.875 16.4366ZM110.491 10.0059C110.829 8.23834 112.07 7.07253 113.612 7.07253C115.943 7.07253 116.545 9.1409 116.696 10.0059L116.733 10.2315H110.415L110.491 10.0059ZM125.872 5.53065H125.985V7.41099H125.759C123.39 7.41099 121.848 9.21612 121.848 11.9614V16.1734H120.08V5.71868H121.848V7.89988L122.224 7.37338C123.089 6.16996 124.33 5.53065 125.684 5.53065C125.721 5.53065 125.796 5.53065 125.872 5.53065ZM92.7401 16.0606C92.176 15.5717 91.5743 15.1956 91.0102 14.8571V5.75629H92.7777L92.7401 16.0606ZM89.2803 14.0674C88.6786 13.8794 88.0768 13.7289 87.4375 13.6161C87.1743 11.999 85.7452 11.1341 82.323 10.4195C77.735 9.44176 76.0427 7.97509 76.0427 5.07936V5.04176C76.0427 2.10842 78.5999 0.00244141 82.135 0.00244141C84.6922 0.00244141 86.6478 0.641758 88.6033 2.18364L87.588 3.53748C85.858 2.18364 84.0905 1.54432 82.0974 1.54432C79.6153 1.54432 77.8102 2.93577 77.8102 4.85372V4.89133C77.8102 6.95971 79.164 7.97509 83.188 8.84005C87.4375 9.74261 89.2803 11.3221 89.2803 14.0674Z" fill="#4F4F4F"></path>
    <path d="M134.446 25.724L134.145 25.5736L134.408 25.3856C135.348 24.671 135.837 23.6556 135.837 22.4146C135.837 21.5121 135.499 20.6847 134.86 20.0454C134.032 19.218 132.678 18.7292 131.099 18.7292H125.984V32.9821H131.362C134.484 32.9821 136.552 31.3274 136.552 28.883C136.589 27.4539 135.875 26.3633 134.446 25.724ZM127.714 20.3462H131.099C133.017 20.3462 134.145 21.1736 134.145 22.5274C134.145 24.7839 131.738 24.9719 131.024 24.9719H127.752V20.3462H127.714ZM131.437 31.3274H127.714V26.589H131.099C133.543 26.589 134.86 27.4163 134.86 28.9206C134.86 30.6881 133.092 31.3274 131.437 31.3274ZM145.578 28.4317V22.377H147.232V32.9445H145.578V31.8539L145.239 32.1548C144.449 32.8317 143.509 33.1702 142.381 33.1702C139.824 33.1702 138.094 31.4027 138.094 28.7702V22.377H139.748V28.5821C139.748 30.4625 140.801 31.5907 142.531 31.5907C144.299 31.6283 145.578 30.2744 145.578 28.4317ZM150.918 32.9445H149.263V18.1274H150.918V32.9445ZM153.136 18.1274H154.791V32.9445H153.136V18.1274ZM160.056 19.7445C160.056 20.6471 159.342 21.3616 158.401 21.3616C157.461 21.3616 156.747 20.6471 156.747 19.7445C156.747 18.842 157.499 18.1274 158.401 18.1274C159.342 18.1274 160.056 18.842 160.056 19.7445ZM157.16 19.7445C157.16 20.4591 157.687 21.0232 158.401 21.0232C159.116 21.0232 159.642 20.4591 159.642 19.7445C159.642 19.03 159.116 18.4283 158.401 18.4283C157.687 18.4659 157.16 19.03 157.16 19.7445ZM158.138 20.5719H157.762V18.9548C157.913 18.9172 158.101 18.9172 158.364 18.9172C158.665 18.9172 158.815 18.9548 158.928 19.03C159.041 19.1052 159.078 19.218 159.078 19.3685C159.078 19.5565 158.928 19.7069 158.74 19.7445V19.7821C158.89 19.8197 158.966 19.9702 159.041 20.1582C159.078 20.4215 159.116 20.4967 159.154 20.5343H158.778C158.74 20.4591 158.702 20.3462 158.665 20.1582C158.627 20.0078 158.552 19.895 158.326 19.895H158.138V20.5719ZM158.138 19.6693H158.326C158.514 19.6693 158.702 19.5941 158.702 19.4437C158.702 19.2933 158.589 19.1804 158.364 19.1804C158.251 19.1804 158.213 19.1804 158.176 19.218V19.6693H158.138Z" fill="#4F4F4F"></path>
    <path d="M100.298 22.267C97.2523 22.267 94.8455 24.6738 94.8455 27.7576C94.8455 30.8037 97.2147 33.173 100.261 33.173C103.345 33.173 105.751 30.7661 105.751 27.6824C105.751 24.6738 103.345 22.267 100.298 22.267ZM100.298 31.5935C98.2677 31.5935 96.6506 29.9012 96.6506 27.72C96.6506 25.5388 98.1925 23.8841 100.261 23.8841C102.329 23.8841 103.946 25.614 103.946 27.7952C103.946 29.9388 102.367 31.5935 100.298 31.5935ZM109.174 32.9473H107.406V18.2807H109.174V32.9473ZM116.244 22.267C113.837 22.267 111.242 24.1849 111.242 27.7576C111.242 31.2926 113.837 33.173 116.244 33.173C117.598 33.173 118.726 32.6465 119.666 31.5935L120.042 31.1798V32.9473H121.81V18.2807H120.042V24.1473L119.704 23.7713C118.726 22.7935 117.598 22.267 116.244 22.267ZM120.08 27.72C120.08 30.0892 118.237 31.5559 116.507 31.5559C114.514 31.5559 113.047 29.9388 113.047 27.6824C113.047 25.426 114.476 23.8841 116.507 23.8841C118.275 23.8841 120.08 25.3131 120.08 27.72ZM80.2164 16.0995C81.6079 15.2345 83.2626 14.6704 85.1805 14.6704C87.9634 14.6704 89.9566 15.3473 91.9874 17.002L90.8592 18.3183C89.6181 17.2653 87.9258 16.2123 85.1053 16.2123C84.3908 16.2123 83.6762 16.3251 82.9993 16.5131C81.9839 16.5884 81.0814 16.4379 80.2164 16.0995ZM92.7395 23.8841V31.1798C91.4985 32.2704 88.9788 33.9627 85.2933 33.9627C79.7275 33.9627 75.8164 30.014 75.8164 24.373V24.3354C75.8164 22.5678 76.3053 20.8003 77.2079 19.2208C77.7344 19.4841 78.2609 19.7097 78.7873 19.8978C78.0352 21.1388 77.6215 22.6431 77.6215 24.2602V24.2978C77.6215 29.0738 80.8181 32.4208 85.3685 32.4208C87.3993 32.4208 89.5053 31.7063 90.972 30.4653L91.0472 30.3901V25.3884H85.2933V23.8841H92.7395Z" fill="#4F4F4F"></path>
</svg>