<svg width="72" height="34" viewBox="0 0 72 34" fill="none" xmlns="http://www.w3.org/2000/svg">
<path d="M0.639316 28.9973C0.639316 28.9973 5.60342 22.3033 6.09231 21.664C6.73162 20.8366 7.63419 19.1443 9.17607 19.0691C10.6051 19.0691 11.5829 18.6178 12.2598 17.9785C12.2222 19.0315 12.3727 21.2879 14.065 22.8298C14.5162 23.2435 14.8171 23.6948 15.0427 24.146C11.6581 22.7546 9.81538 25.199 9.81538 25.199C9.81538 25.199 6.88205 27.8315 5.18974 29.411C3.53504 30.9905 4.06154 31.517 4.06154 31.517L5.4906 33.9238H0C0 33.9238 0 31.4418 0 30.652C0 29.8999 0.639316 28.9973 0.639316 28.9973Z" fill="#4F4F4F"></path>
<path d="M65.6998 19.4828C63.8571 19.3324 63.2554 17.9409 63.1426 17.3768C63.8947 17.7529 65.0981 18.317 65.8879 17.8657C67.4297 16.9631 69.9494 17.452 69.9494 17.452C69.9494 17.452 68.1819 17.5272 66.828 18.693C66.452 19.0691 66.0759 19.2947 65.6998 19.4828Z" fill="#4F4F4F"></path>
<path d="M49.906 24.7837C49.2291 25.6486 49.1915 26.476 50.2444 27.1529C52.3128 28.4692 54.6068 29.6726 55.2462 30.0486C55.8855 30.4247 56.3744 30.5751 56.7504 32.2675C57.1265 33.9974 57.1265 33.9974 57.1265 33.9974H51.8239V32.0418C51.8239 32.0418 51.8615 31.4025 51.0342 31.1392C51.0342 31.1392 46.5966 29.7102 44.9043 29.1461C44.0017 28.8452 43.5504 28.4692 42.9863 27.3786L44.641 25.4982C45.5812 25.423 47.8 25.2726 49.906 24.7837Z" fill="#4F4F4F"></path>
<path d="M51.2959 23.2811C49.7164 23.8452 48.325 24.0708 45.5797 24.3717C45.5797 24.3717 47.272 22.5289 47.7609 21.8144C48.513 20.7614 50.8822 18.4298 50.2805 14.8947C49.5284 10.3819 45.3164 9.6674 43.06 9.93065L43.1728 10.946C43.3985 10.9084 48.5882 10.4948 49.2651 15.0076C49.7916 18.5426 47.272 20.7614 43.4361 25.1614C42.7592 25.9512 39.6002 29.599 39.6002 29.599C39.6002 29.599 38.5096 30.6896 39.0361 31.705C39.5626 32.6828 40.1643 33.9238 40.1643 33.9238H34.4857C34.4857 33.9238 34.4857 31.9683 34.4857 30.84C34.4857 29.7118 34.8241 29.3358 35.313 28.5084C36.2532 26.9289 37.607 24.6349 37.9831 24.0332C38.7352 22.7922 38.3592 22.5289 36.0275 21.664C32.6053 20.3853 28.5438 20.9118 24.0686 24.6349C22.978 25.5375 23.9557 26.1768 24.3694 26.4401C26.5882 27.8315 29.7848 29.4486 30.2737 29.7118C30.9506 30.0879 31.2891 30.1255 31.7028 31.9683C32.0788 33.8486 32.0788 33.8486 32.0788 33.8486H26.5882C26.5882 33.8486 26.6258 32.0435 26.6258 31.9683C26.6258 31.705 26.6634 31.0657 25.7609 30.7648C25.7609 30.7648 20.3831 29.1853 18.5404 28.6212C16.6976 28.0195 16.5848 26.5153 16.5848 26.2896C16.5848 26.1768 16.5848 25.5751 16.3968 24.823C16.1711 23.9956 15.7198 22.9426 14.7797 22.04C12.9369 20.3477 13.125 16.8503 13.6515 14.3683C12.6737 15.1956 11.4703 15.9853 9.74036 15.9853C7.25831 15.9853 4.92668 13.5033 3.23438 9.44176L4.17455 9.06569C5.71643 12.7888 7.67198 14.9324 9.70275 14.97C12.4857 15.0076 14.2532 11.8862 15.1557 10.9836C17.0361 9.1033 19.1045 8.76484 22.2634 8.72723C25.7233 8.68962 28.6942 8.95287 32.9814 5.71868C36.1028 3.34945 42.4207 0.00244141 46.6327 0.00244141C51.7472 0.00244141 56.9746 5.04176 60.1335 11.6606C60.472 12.3751 61.3369 14.7443 62.2395 17.64C63.1421 20.611 66.0378 20.611 67.0908 20.2725C68.219 19.8965 69.4976 19.2195 73.3711 19.746C73.3711 19.746 71.1899 19.8212 69.3848 21.1751C67.0532 23.0178 65.2481 22.9802 63.4805 23.0554C61.713 23.1683 60.0583 26.9665 58.7421 28.8469H56.4104C56.4104 28.8469 54.9438 28.8845 55.0566 27.0042C55.1694 25.011 55.2822 23.4315 54.3421 22.1529C53.7028 21.2879 53.9284 22.3409 51.2959 23.2811Z" fill="#4F4F4F"></path>
</svg>